<svg xmlns="http://www.w3.org/2000/svg" viewBox="0 0 570.93 702.94"><path fill="#af5538" d="M570.76,577.82c-53.71-16.7-81.76-53.51-102.09-103.15l-19.56-47.77c-46.27,14.78-85.45,48.15-100.88,94.39-6.9,20.69-3.15,38.43,12.74,53.47,49.44,46.79,142.67,63.96,209.81,76.26l.09,51.93c-51.46-7.41-101.85-17.9-151.12-35.12-47.12-16.47-113.67-50.77-128.69-101.68-8.29-28.09-1.46-55.99,11.34-82.21,25.1-51.41,72.5-88.12,127.33-105.87-25.84-64.38-69.72-144.27-135.59-174.97l-12.33,61.68c-4.62,23.1-7.78,45.43-14.01,68.48-17.82,65.9-47.19,147.72-110.35,184.18-46.48,26.83-108.26,14.26-140.18-28.7-38.42-51.71-4.34-135.31,21-186.11,19.98-40.06,40.69-79.38,70.12-113.34,34.3-45.46,93.16-58.44,148-51.19,25.46-65.98,78.87-111.65,148.2-126.82,54.33-11.89,109.86-13.86,166.27-8.28l-.08,51.72c-50.97-4.02-100.47-4.27-149.44,5.97-50.66,10.59-90.51,42.86-109.51,92.38,76.41,32.97,122.65,101.32,157.28,173.02l19.47,42.5c28.3-.97,54.94,2.37,82.24,11.6l.02,55.99c-20.37-8.74-39.46-14.56-62.64-15.45l18.95,46.95c8.9,22.05,22.81,41.03,43.78,53.37l-.18,56.78ZM237.95,188.03c-22.7-.58-43.59,1.41-61.51,12.39-41.5,25.43-89.82,127.98-107.4,174.18-9.52,25.01-15.32,51.48-8.1,77.03,4.42,15.63,20.8,23.78,33.87,27.05,38.67,9.67,71.16-41.07,86.39-71.65,22.25-44.66,33.43-92.36,42.39-141.03l14.36-77.96Z"/></svg>
